<svg xmlns="http://www.w3.org/2000/svg" viewBox="0 0 600 175.37"><path d="M33.76,73.07c-.37-2.31-.54-4.64-.51-6.97-5.66,8.19-12.43,8.19-15.26,8.19-7.38,0-10.71-2.12-12.73-4.04-2.91-3-4.51-7.04-4.45-11.22,0-4.04,1.41-11.52,10.81-15.87,6.27-2.83,15.26-2.83,20.21-2.83.15-2.28-.09-4.57-.71-6.77-1.31-3.74-5.26-4.25-6.67-4.25-2.24-.04-4.35,1.02-5.66,2.83-.83,1.36-1.22,2.95-1.11,4.54H3.03c.1-2.73.4-8.18,5.76-12.02,4.65-3.34,10.61-4.14,15.46-4.14,4.24,0,13.14.71,18.19,6.57,3.44,4.14,3.54,10.21,3.54,12.53l.1,20.52c-.05,4.34.35,8.68,1.21,12.93h-13.54ZM15.36,57.3c-.13,3.88,2.91,7.14,6.79,7.28.16,0,.32,0,.49,0,2.45-.01,4.77-1.08,6.37-2.93,2.63-3.23,2.83-7.17,2.83-12.63-9.6-.81-16.47,2.22-16.47,8.29M93.08.1h15.06v64.67c0,3.03.2,6.37.4,8.29h-15.16l-.4-7.38c-1.13,2.37-2.92,4.37-5.15,5.76-2.97,1.82-6.42,2.74-9.9,2.63-13.64,0-21.73-9.4-21.73-25.37,0-16.88,9.2-27.38,22.54-27.38,9.2,0,13.04,5.15,14.35,6.97V.1ZM81.66,64.37c3.99-.02,7.64-2.23,9.5-5.76,2.22-4.24,2.43-9.5,2.43-12.03,0-10-4.35-15.46-11.12-15.46-10.01,0-11.12,12.03-11.12,17.18,0,8.49,2.83,16.07,10.31,16.07M133.09,51.34c0,3.33,0,13.64,10.41,13.64,3.74,0,7.48-1.42,8.89-7.07h13.64c-.2,4.17-1.93,8.13-4.85,11.12-3.74,3.94-10.41,5.96-17.89,5.96-4.35,0-12.63-.81-17.99-6.37-4.65-4.85-6.57-11.72-6.57-19.91s2.02-18.19,10.61-24.15c4.25-2.81,9.25-4.29,14.35-4.24,7.28,0,15.96,2.83,20.62,12.33,3.44,6.97,3.23,14.45,3.03,18.7h-34.26ZM152.09,41.94c0-2.32-.2-11.42-8.89-11.42-6.57,0-9.3,5.46-9.6,11.42h18.49ZM177.26,0h14.96v73.07h-14.96V0ZM235.98,73.07c-.37-2.31-.54-4.64-.51-6.97-5.66,8.19-12.43,8.19-15.26,8.19-7.38,0-10.71-2.12-12.73-4.04-2.91-3-4.51-7.04-4.45-11.22,0-4.04,1.41-11.52,10.81-15.87,6.27-2.83,15.26-2.83,20.21-2.83.15-2.28-.09-4.57-.71-6.77-1.31-3.74-5.26-4.25-6.67-4.25-2.24-.04-4.35,1.02-5.66,2.83-.83,1.36-1.22,2.95-1.11,4.54h-14.65c.1-2.73.4-8.18,5.76-12.02,4.65-3.34,10.61-4.14,15.46-4.14,4.24,0,13.14.71,18.19,6.57,3.44,4.14,3.54,10.21,3.54,12.53l.1,20.52c-.05,4.34.35,8.68,1.21,12.93h-13.54ZM217.58,57.3c-.13,3.88,2.91,7.14,6.79,7.28.16,0,.32,0,.49,0,2.45-.01,4.77-1.08,6.37-2.93,2.63-3.23,2.83-7.17,2.83-12.63-9.6-.81-16.47,2.22-16.47,8.29M261.04.1h15.96v13.04h-15.96V.1ZM261.55,21.93h14.96v51.14h-14.96V21.93ZM323.39.1h15.06v64.67c0,3.03.2,6.37.4,8.29h-15.16l-.4-7.38c-1.13,2.37-2.92,4.37-5.15,5.76-2.97,1.82-6.42,2.74-9.9,2.63-13.64,0-21.73-9.4-21.73-25.37,0-16.88,9.2-27.38,22.54-27.38,9.2,0,13.04,5.15,14.35,6.97V.1ZM311.97,64.37c3.99-.02,7.64-2.23,9.5-5.76,2.22-4.24,2.43-9.5,2.43-12.03,0-10-4.35-15.46-11.12-15.46-10.01,0-11.12,12.03-11.12,17.18,0,8.49,2.83,16.07,10.31,16.07M363.41,51.34c0,3.33,0,13.64,10.41,13.64,3.74,0,7.48-1.42,8.89-7.07h13.64c-.2,4.17-1.93,8.13-4.85,11.12-3.74,3.94-10.41,5.96-17.89,5.96-4.35,0-12.63-.81-17.99-6.37-4.65-4.85-6.57-11.72-6.57-19.91s2.02-18.19,10.61-24.15c4.25-2.81,9.25-4.29,14.35-4.24,7.28,0,15.96,2.83,20.62,12.33,3.44,6.97,3.23,14.45,3.03,18.7h-34.26ZM382.41,41.94c0-2.32-.2-11.42-8.89-11.42-6.57,0-9.3,5.46-9.6,11.42h18.49ZM36.89,82.3h15.06v64.68c0,3.03.2,6.37.4,8.29h-15.16l-.4-7.38c-1.13,2.37-2.92,4.37-5.15,5.76-2.97,1.82-6.42,2.74-9.9,2.63-13.64,0-21.73-9.4-21.73-25.37,0-16.88,9.2-27.38,22.54-27.38,9.2,0,13.04,5.15,14.35,6.97v-28.2ZM25.47,146.57c3.99-.02,7.64-2.23,9.5-5.76,2.22-4.25,2.43-9.5,2.43-12.03,0-10.01-4.35-15.46-11.12-15.46-10.01,0-11.12,12.03-11.12,17.18,0,8.49,2.83,16.07,10.31,16.07M76.91,133.54c0,3.34,0,13.64,10.41,13.64,3.74,0,7.48-1.41,8.89-7.07h13.64c-.2,4.17-1.93,8.13-4.85,11.12-3.74,3.94-10.41,5.96-17.89,5.96-4.35,0-12.63-.81-17.99-6.37-4.65-4.85-6.57-11.72-6.57-19.91s2.02-18.19,10.61-24.15c4.25-2.81,9.25-4.29,14.35-4.24,7.28,0,15.96,2.83,20.62,12.33,3.44,6.97,3.23,14.45,3.03,18.7h-34.26ZM95.9,124.14c0-2.32-.2-11.42-8.89-11.42-6.57,0-9.3,5.46-9.6,11.42h18.49ZM131.48,140.51c.2,3.23,2.22,6.97,8.49,6.97,5.36,0,7.88-3.03,7.88-6.06,0-2.32-1.21-4.14-7.07-5.76l-9.3-2.53c-4.14-1.21-12.93-3.74-12.93-14.15s9.1-15.96,22.33-15.96c10.51,0,19,4.85,19.4,15.06h-13.64c-.4-5.66-4.95-6.06-7.28-6.06-4.04,0-7.07,1.92-7.07,5.05,0,3.44,2.53,4.14,6.97,5.36l9.2,2.53c9.3,2.53,13.64,7.28,13.64,14.25,0,8.79-7.58,17.58-23.45,17.58-6.57,0-12.84-1.41-17.48-6.26-2.47-2.74-3.8-6.32-3.74-10.01h14.04ZM171.1,82.3h15.96v13.04h-15.96v-13.04ZM171.6,104.13h14.96v51.14h-14.96v-51.14ZM248.11,104.43c-.47,4.19-.71,8.41-.71,12.63v37.7c0,18.8-15.66,20.62-25.47,20.62-7.28,0-21.53-.91-22.44-16.37h14.35c.2,1.51.91,7.07,8.89,7.07,4.45,0,8.29-2.12,9.3-6.67.61-2.53.61-4.35.71-12.13-4.75,6.27-10.11,6.97-13.75,6.97-14.65,0-21.53-12.73-21.53-25.06,0-12.93,7.17-25.26,21.83-25.26,9.3,0,12.73,5.05,14.25,7.28l.5-6.77h14.05ZM222.44,144.05c10.51,0,10.51-12.33,10.51-14.55,0-5.76-1.11-15.56-10.21-15.56-5.66,0-10.31,4.35-10.31,15.27,0,2.53,0,14.85,10.01,14.85M261.65,113.32c0-.2,0-5.76-.3-9.3h14.35l.4,7.68c1.41-2.32,5.46-8.89,16.57-8.89,10.01,0,14.25,6.06,15.56,9.6,1.11,3.13,1.41,5.76,1.41,15.27v27.59h-15.26v-31.74c.17-1.89-.11-3.79-.81-5.56-1.36-2.76-4.21-4.46-7.28-4.35-3.09-.06-6,1.42-7.78,3.94-.91,1.31-1.82,3.85-1.82,7.78v29.91h-15.06v-41.94ZM361.09,104.23l9.4,38.5,10.81-38.5h16.47l10.71,38.5,10.01-38.5h14.86l-17.48,51.04h-16.27l-10.51-37.8-10.71,37.8h-16.47l-16.68-51.04h15.87ZM451.13,133.54c0,3.34,0,13.64,10.41,13.64,3.74,0,7.48-1.41,8.89-7.07h13.64c-.2,4.17-1.93,8.13-4.85,11.12-3.74,3.94-10.41,5.96-17.89,5.96-4.35,0-12.63-.81-17.99-6.37-4.65-4.85-6.57-11.72-6.57-19.91s2.02-18.19,10.61-24.15c4.25-2.81,9.25-4.29,14.35-4.24,7.28,0,15.96,2.83,20.62,12.33,3.44,6.97,3.23,14.45,3.03,18.7h-34.25ZM470.13,124.14c0-2.32-.2-11.42-8.89-11.42-6.57,0-9.3,5.46-9.6,11.42h18.49ZM507.32,133.54c0,3.34,0,13.64,10.41,13.64,3.74,0,7.48-1.41,8.89-7.07h13.64c-.2,4.17-1.93,8.13-4.85,11.12-3.74,3.94-10.41,5.96-17.89,5.96-4.35,0-12.63-.81-17.99-6.37-4.65-4.85-6.57-11.72-6.57-19.91s2.02-18.19,10.61-24.15c4.25-2.81,9.25-4.29,14.35-4.24,7.28,0,15.96,2.83,20.62,12.33,3.44,6.97,3.23,14.45,3.03,18.7h-34.26ZM526.32,124.14c0-2.32-.2-11.42-8.89-11.42-6.57,0-9.3,5.46-9.6,11.42h18.49ZM551.69,82.2h14.86v43.05l15.46-21.32h16.88l-17.48,22.23,18.6,29.1h-17.69l-15.77-27.79v27.79h-14.86v-73.06Z" fill="#8a8d8f"/></svg>