<svg xmlns="http://www.w3.org/2000/svg" viewBox="0 0 600 180.72"><path d="M0,66.9l21.28-19.4c4.43-3.83,8.56-7.99,12.35-12.46,4.59-5.53,5.64-8.11,5.64-11.87,0-6.23-3.65-10.46-9.76-10.46-9.41,0-10.23,9.64-10.35,11.99H1.18c-.32-5.55,1.39-11.02,4.82-15.4C10.7,3.41,19.4.35,29.4.35c17.87,0,27.75,9.64,27.75,22.34,0,8.47-3.29,19.4-38.8,47.97,11.88-.23,13.29-.35,22.58-.47,12.58-.24,13.99-.24,16.7-.35v13.64H0v-16.58ZM95.47.23c8.51-.26,16.56,3.81,21.4,10.82,4.23,6.23,7.41,14.23,7.41,29.63,0,19.05-4.35,44.09-29.04,44.09-21.05,0-28.34-20.22-28.34-42.1C66.9,31.74,69.13.23,95.47.23M104.53,23.39c-.47-2.23-2.47-9.52-8.93-9.52-5.06,0-7.29,4.59-8.11,7.06-2.71,8.35-2.71,20.93-2.71,22.93,0,13.99,2.12,27.04,10.93,27.04,9.41,0,10.94-15.99,10.94-27.28,0-5.17-.59-14.82-2.12-20.22M136.51,67.84h14.93v15.64h-14.93v-15.64ZM193.54.23c8.51-.26,16.56,3.81,21.4,10.82,4.23,6.23,7.41,14.23,7.41,29.63,0,19.05-4.35,44.09-29.04,44.09-21.05,0-28.34-20.22-28.34-42.1,0-10.94,2.23-42.45,28.57-42.45M202.59,23.39c-.47-2.23-2.47-9.52-8.93-9.52-5.06,0-7.29,4.59-8.11,7.06-2.71,8.35-2.71,20.93-2.71,22.93,0,13.99,2.12,27.04,10.93,27.04,9.41,0,10.94-15.99,10.94-27.28,0-5.17-.59-14.82-2.12-20.22M230.8,22.93c0-9.99,8.35-22.93,28.34-22.93,16.46,0,27.87,9.41,27.87,22.22,0,9.88-7.76,16.7-16.11,17.99,3.29.94,8.82,2.35,13.17,8.46,2.51,3.58,3.83,7.86,3.76,12.23,0,15.05-13.99,23.87-30.1,23.87s-28.22-10.69-28.22-23.87c-.12-5.42,2.05-10.63,6-14.35,3.05-2.89,6.77-4.99,10.82-6.11-4.11-1.29-15.52-4.82-15.52-17.52M270.54,59.73c.24-6.32-4.7-11.64-11.02-11.87-.25,0-.49-.01-.74,0-6.72.23-11.98,5.86-11.75,12.58.22,6.44,5.42,11.6,11.87,11.75,4.94,0,11.64-3.29,11.64-12.46M269.96,23.16c0-6.7-5.41-10.23-10.93-10.23-5.88,0-10.7,4-10.7,10.23-.19,5.66,4.25,10.4,9.91,10.58.22,0,.45,0,.67,0,6,0,11.05-4,11.05-10.58M12.35,142.51h87.01v11.41H12.35v-11.41ZM150.26,162.38l21.28-19.4c4.43-3.83,8.56-7.99,12.35-12.46,4.59-5.53,5.64-8.11,5.64-11.88,0-6.23-3.65-10.46-9.76-10.46-9.41,0-10.23,9.64-10.35,11.99h-17.99c-.32-5.55,1.39-11.03,4.82-15.4,4.7-5.88,13.4-8.93,23.4-8.93,17.87,0,27.75,9.64,27.75,22.33,0,8.47-3.29,19.4-38.8,47.97,11.88-.24,13.29-.35,22.58-.47,12.58-.24,13.99-.24,16.7-.35v13.64h-57.61v-16.58ZM214.58,161.09v-15.87l32.92-48.32h17.52l-.12,50.68h11.17v13.52h-11.17v17.87h-17.4v-17.87h-32.92ZM227.75,147.92h20.69v-21.63c0-1.06.12-6.94.24-9.05l-20.93,30.69ZM286.77,163.32h14.93v15.64h-14.93v-15.64ZM343.8,95.71c8.51-.26,16.56,3.81,21.4,10.82,4.23,6.23,7.41,14.23,7.41,29.63,0,19.05-4.35,44.09-29.04,44.09-21.05,0-28.34-20.22-28.34-42.1,0-10.94,2.23-42.45,28.57-42.45M352.85,118.87c-.47-2.23-2.47-9.52-8.93-9.52-5.06,0-7.29,4.59-8.11,7.06-2.71,8.35-2.71,20.93-2.71,22.93,0,13.99,2.12,27.04,10.93,27.04,9.41,0,10.94-15.99,10.94-27.28,0-5.17-.59-14.82-2.12-20.22M381.07,118.4c0-9.99,8.35-22.93,28.34-22.93,16.46,0,27.87,9.41,27.87,22.22,0,9.88-7.76,16.7-16.11,17.99,3.29.95,8.82,2.35,13.17,8.47,2.51,3.58,3.83,7.86,3.76,12.23,0,15.05-13.99,23.87-30.1,23.87s-28.22-10.7-28.22-23.87c-.12-5.42,2.05-10.63,6-14.35,3.05-2.89,6.77-4.99,10.82-6.11-4.12-1.29-15.52-4.82-15.52-17.52M420.81,155.21c.24-6.32-4.7-11.64-11.02-11.87-.25,0-.49-.01-.74,0-6.72.24-11.97,5.89-11.73,12.61.23,6.43,5.42,11.56,11.85,11.73,4.94,0,11.64-3.29,11.64-12.46M420.22,118.64c0-6.7-5.41-10.23-10.93-10.23-5.88,0-10.7,4-10.7,10.23-.19,5.66,4.25,10.4,9.91,10.58.22,0,.45,0,.67,0,6,0,11.05-4,11.05-10.58M450.2,163.32h14.93v15.64h-14.93v-15.64ZM477.12,162.38l21.28-19.4c4.43-3.83,8.56-7.99,12.35-12.46,4.59-5.53,5.64-8.11,5.64-11.88,0-6.23-3.65-10.46-9.76-10.46-9.41,0-10.23,9.64-10.35,11.99h-17.99c-.32-5.55,1.39-11.03,4.82-15.4,4.7-5.88,13.4-8.93,23.4-8.93,17.87,0,27.75,9.64,27.75,22.33,0,8.47-3.29,19.4-38.8,47.97,11.88-.24,13.29-.35,22.58-.47,12.59-.24,13.99-.24,16.7-.35v13.64h-57.61v-16.58ZM560.61,158.74c.01,5.08,4.14,9.19,9.23,9.18.14,0,.28,0,.42-.01,6.35,0,12.11-4.59,12.11-15.4,0-7.88-3.06-14.7-10.94-14.7s-9.88,6.35-10.46,8.23l-17.05-.47,1.88-48.56h49.74v13.4h-34.21l-1.06,20.34c2.59-2.23,6.47-5.88,15.52-5.88,13.17,0,24.22,9.64,24.22,26.1,0,13.99-8.23,29.75-29.28,29.75-8.58,0-17.28-2.23-22.93-8.93-3.01-3.68-4.63-8.3-4.59-13.05h17.4Z" fill="#8a8d8f"/></svg>