<svg xmlns="http://www.w3.org/2000/svg" viewBox="0 0 600 143.99"><path d="M14.43,51.73c0,3.35,0,13.72,10.47,13.72,3.76,0,7.52-1.42,8.94-7.11h13.72c-.2,4.2-1.94,8.17-4.88,11.18-3.76,3.96-10.47,6-17.99,6-4.37,0-12.7-.81-18.09-6.4C1.93,64.23,0,57.32,0,49.09s2.03-18.29,10.67-24.29c4.28-2.83,9.3-4.32,14.43-4.27,7.32,0,16.06,2.85,20.73,12.4,3.46,7.01,3.25,14.53,3.05,18.8H14.43ZM33.54,42.28c0-2.34-.2-11.48-8.94-11.48-6.6,0-9.35,5.49-9.65,11.48h18.6ZM69,22.26l11.58,34.85,11.79-34.85h14.53l-18.49,51.32h-16.67l-18.81-51.32h16.06ZM125.4,51.73c0,3.35,0,13.72,10.47,13.72,3.76,0,7.52-1.42,8.94-7.11h13.72c-.2,4.2-1.94,8.17-4.88,11.18-3.76,3.96-10.47,6-17.99,6-4.37,0-12.7-.81-18.09-6.4-4.68-4.88-6.6-11.79-6.6-20.02s2.03-18.29,10.67-24.29c4.28-2.83,9.3-4.32,14.43-4.27,7.32,0,16.06,2.85,20.73,12.4,3.46,7.01,3.25,14.53,3.05,18.8h-34.45ZM144.5,42.28c0-2.34-.2-11.48-8.94-11.48-6.6,0-9.35,5.49-9.65,11.48h18.6ZM169.81,34.86c0-2.44-.41-9.86-.71-12.8h14.12l.3,9.86c1.93-4.37,5.28-10.57,17.48-9.96v13.52c-15.24-1.42-16.16,6.4-16.16,12.8v25.3h-15.04v-38.72ZM220.4,22.26l11.28,35.56,11.48-35.56h14.94l-19.41,50.4-6.2,20.42h-15.14l6.5-19.3-19.71-51.52h16.26ZM293.21,8.58l2.33,7.39-10.57,3.28,6.9,9.87-6.35,4.51-6.9-9.33-7.1,9.33-6.35-4.51,6.95-9.87-10.57-3.28,2.33-7.39,10.37,3.37V0h8.58v11.96l10.38-3.37ZM315.23,22.26l9.45,38.72,10.88-38.72h16.56l10.77,38.72,10.06-38.72h14.94l-17.58,51.32h-16.37l-10.57-38.01-10.77,38.01h-16.56l-16.77-51.32h15.96ZM396.11.21h14.94v29.06c1.73-2.44,5.49-7.72,14.84-7.72,5.79-.16,11.31,2.4,14.94,6.91,1.83,2.54,3.35,7.22,3.35,13.92v31.2h-14.94v-30.69c0-2.95,0-11.18-8.43-11.18-4.27,0-9.65,2.44-9.65,10.47l.1,31.4h-15.14V.21ZM469.88,51.73c0,3.35,0,13.72,10.47,13.72,3.76,0,7.52-1.42,8.94-7.11h13.72c-.2,4.2-1.94,8.17-4.88,11.18-3.76,3.96-10.47,6-17.99,6-4.37,0-12.7-.81-18.09-6.4-4.68-4.88-6.6-11.79-6.6-20.02s2.03-18.29,10.67-24.29c4.28-2.83,9.3-4.32,14.43-4.27,7.32,0,16.06,2.85,20.73,12.4,3.46,7.01,3.25,14.53,3.05,18.8h-34.45ZM488.99,42.28c0-2.34-.2-11.48-8.94-11.48-6.6,0-9.35,5.49-9.65,11.48h18.6ZM514.29,34.86c0-2.44-.41-9.86-.71-12.8h14.12l.3,9.86c1.93-4.37,5.29-10.57,17.48-9.96v13.52c-15.24-1.42-16.16,6.4-16.16,12.8v25.3h-15.04v-38.72ZM562.86,51.73c0,3.35,0,13.72,10.47,13.72,3.76,0,7.52-1.42,8.94-7.11h13.72c-.2,4.2-1.94,8.17-4.88,11.18-3.76,3.96-10.47,6-17.99,6-4.37,0-12.7-.81-18.09-6.4-4.68-4.88-6.6-11.79-6.6-20.02s2.03-18.29,10.67-24.29c4.28-2.83,9.3-4.32,14.43-4.27,7.32,0,16.06,2.85,20.73,12.4,3.46,7.01,3.25,14.53,3.05,18.8h-34.45ZM581.96,42.28c0-2.34-.2-11.48-8.94-11.48-6.6,0-9.35,5.49-9.65,11.48h18.6ZM16.81,134.79c-1.67.45-3.4.69-5.13.71-6.65,0-6.65-4.2-6.65-6.07v-12.36H.71v-4.37h4.33v-4.42l6.56-2.41v6.83h5.36v4.37h-5.36v10.18c.04,2.05.04,3.35,2.99,3.35.75,0,1.49-.04,2.23-.13v4.32ZM21.1,102.89h6.56v12.76c1.4-2.23,3.89-3.52,6.52-3.39,2.54-.07,4.97,1.05,6.56,3.03,1.09,1.85,1.6,3.98,1.47,6.12v13.7h-6.56v-13.48c0-1.29,0-4.91-3.7-4.91-1.87,0-4.24,1.07-4.24,4.6l.05,13.79h-6.65v-32.22ZM47.96,102.89h7.05v5.76h-7.05v-5.76ZM48.18,112.53h6.6v22.58h-6.6v-22.58ZM60.68,116.59c0-.09,0-2.54-.13-4.1h6.34l.18,3.39c1.48-2.61,4.33-4.13,7.32-3.93,4.42,0,6.29,2.68,6.87,4.24.49,1.38.62,2.54.62,6.74v12.18h-6.74v-14.01c.07-.84-.05-1.68-.36-2.46-.6-1.22-1.86-1.97-3.21-1.92-1.36-.03-2.65.63-3.44,1.74-.6,1.04-.88,2.24-.8,3.44v13.21h-6.65v-18.52ZM87.94,102.84h6.56v19.01l6.83-9.42h7.45l-7.72,9.82,8.21,12.85h-7.81l-6.96-12.27v12.27h-6.56v-32.26ZM112.44,102.89h7.05v5.76h-7.05v-5.76ZM112.67,112.53h6.6v22.58h-6.6v-22.58ZM125.16,116.59c0-.09,0-2.54-.13-4.1h6.34l.18,3.39c1.48-2.61,4.33-4.13,7.32-3.93,4.42,0,6.29,2.68,6.87,4.24.49,1.38.62,2.54.62,6.74v12.18h-6.73v-14.01c.07-.84-.05-1.68-.36-2.46-.6-1.22-1.86-1.97-3.21-1.92-1.36-.03-2.65.63-3.44,1.74-.6,1.04-.88,2.24-.8,3.44v13.21h-6.65v-18.52ZM173.71,112.66c-.21,1.85-.31,3.71-.31,5.58v16.64c0,8.3-6.92,9.1-11.25,9.1-3.21,0-9.51-.4-9.91-7.23h6.34c.09.67.4,3.12,3.93,3.12,1.91.18,3.66-1.08,4.11-2.95.3-1.77.41-3.56.31-5.35-1.37,1.99-3.65,3.15-6.07,3.08-6.47,0-9.51-5.62-9.51-11.07,0-5.71,3.17-11.16,9.64-11.16,2.53-.18,4.96,1.06,6.29,3.21l.22-2.99h6.2ZM162.38,130.15c4.64,0,4.64-5.44,4.64-6.43,0-2.54-.49-6.87-4.51-6.87-2.5,0-4.55,1.92-4.55,6.74,0,1.11,0,6.56,4.42,6.56M180,129.17h5.67v5.94h-5.67v-5.94ZM218.2,102.89h6.65v28.56c0,1.34.09,2.81.18,3.66h-6.69l-.18-3.26c-.5,1.05-1.29,1.93-2.28,2.54-1.31.81-2.83,1.21-4.37,1.16-6.02,0-9.59-4.15-9.59-11.2,0-7.45,4.06-12.09,9.95-12.09,2.5-.14,4.9,1.02,6.34,3.08v-12.45ZM213.16,131.27c1.76,0,3.37-.99,4.2-2.54.76-1.67,1.12-3.48,1.07-5.31,0-4.42-1.92-6.83-4.91-6.83-4.42,0-4.91,5.31-4.91,7.59,0,3.74,1.25,7.1,4.55,7.1M235.87,125.51c0,1.47,0,6.02,4.6,6.02,1.92.15,3.63-1.22,3.93-3.12h6.02c-.09,1.84-.85,3.59-2.14,4.91-1.65,1.74-4.6,2.63-7.9,2.63-1.92,0-5.58-.36-7.94-2.81-2.05-2.14-2.9-5.18-2.9-8.79s.89-8.03,4.68-10.67c1.88-1.24,4.09-1.89,6.34-1.87,3.85-.16,7.42,1.98,9.1,5.44,1.14,2.59,1.6,5.43,1.34,8.25h-15.12ZM244.26,121.36c0-1.03-.09-5.04-3.93-5.04-2.9,0-4.11,2.41-4.24,5.04h8.17ZM259.97,128.59c.09,1.43.98,3.08,3.74,3.08,2.37,0,3.48-1.34,3.48-2.68,0-1.03-.54-1.83-3.12-2.54l-4.11-1.12c-1.83-.54-5.71-1.65-5.71-6.25s4.02-7.05,9.86-7.05c4.64,0,8.39,2.14,8.57,6.65h-6.02c-.04-1.54-1.32-2.75-2.86-2.71-.12,0-.24.01-.35.03-1.78,0-3.12.85-3.12,2.23,0,1.52,1.12,1.83,3.08,2.36l4.06,1.11c4.11,1.12,6.02,3.21,6.02,6.29,0,3.88-3.35,7.76-10.35,7.76-2.85.2-5.65-.8-7.72-2.77-1.09-1.21-1.68-2.79-1.65-4.42h6.21ZM277.46,102.89h7.05v5.76h-7.05v-5.76ZM277.68,112.53h6.6v22.58h-6.6v-22.58ZM311.47,112.66c-.21,1.85-.31,3.71-.31,5.58v16.64c0,8.3-6.92,9.1-11.25,9.1-3.21,0-9.51-.4-9.91-7.23h6.34c.09.67.4,3.12,3.93,3.12,1.91.18,3.66-1.08,4.11-2.95.3-1.77.41-3.56.31-5.35-1.37,1.99-3.65,3.15-6.07,3.08-6.47,0-9.51-5.62-9.51-11.07,0-5.71,3.17-11.16,9.64-11.16,2.53-.18,4.96,1.06,6.29,3.21l.22-2.99h6.2ZM300.13,130.15c4.64,0,4.64-5.44,4.64-6.43,0-2.54-.49-6.87-4.51-6.87-2.5,0-4.55,1.92-4.55,6.74,0,1.11,0,6.56,4.42,6.56M317.44,116.59c0-.09,0-2.54-.13-4.1h6.33l.18,3.39c1.48-2.61,4.33-4.13,7.32-3.93,4.42,0,6.29,2.68,6.87,4.24.49,1.38.62,2.54.62,6.74v12.18h-6.74v-14.01c.07-.84-.05-1.68-.36-2.46-.6-1.22-1.86-1.97-3.21-1.92-1.36-.03-2.65.63-3.44,1.74-.6,1.04-.88,2.24-.8,3.44v13.21h-6.65v-18.52ZM344.4,102.89h7.05v5.76h-7.05v-5.76ZM344.62,112.53h6.6v22.58h-6.6v-22.58ZM357.11,116.59c0-.09,0-2.54-.13-4.1h6.34l.18,3.39c1.48-2.61,4.33-4.13,7.32-3.93,4.42,0,6.29,2.68,6.87,4.24.49,1.38.62,2.54.62,6.74v12.18h-6.74v-14.01c.08-.84-.04-1.68-.35-2.46-.6-1.22-1.86-1.97-3.21-1.92-1.36-.03-2.65.63-3.44,1.74-.6,1.04-.88,2.24-.8,3.44v13.21h-6.65v-18.52ZM405.66,112.66c-.21,1.85-.31,3.71-.31,5.58v16.64c0,8.3-6.92,9.1-11.25,9.1-3.21,0-9.51-.4-9.91-7.23h6.34c.09.67.4,3.12,3.93,3.12,1.91.17,3.66-1.08,4.11-2.95.3-1.77.41-3.56.31-5.35-1.37,1.99-3.65,3.15-6.07,3.08-6.47,0-9.51-5.62-9.51-11.07,0-5.71,3.17-11.16,9.64-11.16,2.53-.18,4.96,1.06,6.29,3.21l.22-2.99h6.2ZM394.33,130.15c4.64,0,4.64-5.44,4.64-6.43,0-2.54-.49-6.87-4.51-6.87-2.5,0-4.55,1.92-4.55,6.74,0,1.11,0,6.56,4.42,6.56M411.96,129.17h5.67v5.94h-5.67v-5.94ZM435.38,116.81c0-1.43-.09-2.81-.22-4.24h6.38l.22,2.9c1.55-2.29,4.2-3.58,6.96-3.39,5.18,0,6.65,3.17,7.1,4.24,1.33-2.74,4.19-4.4,7.23-4.2,2.79-.19,5.45,1.21,6.87,3.61,1.2,1.96,1.11,4.69,1.11,6.65v12.72h-6.65v-13.25c0-2.41-.36-5.09-3.79-5.09-3.97,0-4.06,3.7-4.06,7.05v11.29h-6.65v-13.39c0-1.74-.04-4.95-3.7-4.95-4.15,0-4.15,3.57-4.15,5.09v13.25h-6.65v-18.3ZM490.89,135.11c-.16-1.02-.24-2.05-.22-3.08-1.42,2.34-4,3.73-6.74,3.61-3.26,0-4.73-.94-5.62-1.78-1.28-1.33-1.99-3.11-1.96-4.95,0-3.1,1.89-5.88,4.77-7.01,2.77-1.25,6.74-1.25,8.93-1.25.07-1.01-.04-2.02-.31-2.99-.49-1.18-1.67-1.93-2.95-1.87-.99-.02-1.92.45-2.5,1.25-.37.6-.54,1.3-.49,2.01h-6.47c-.08-2.08.87-4.07,2.54-5.31,2.04-1.29,4.42-1.93,6.83-1.83,1.87,0,5.8.31,8.03,2.9,1.12,1.62,1.67,3.57,1.56,5.53l.04,9.06c-.02,1.92.16,3.83.54,5.71h-5.98ZM482.77,128.14c-.06,1.72,1.28,3.15,3,3.21.07,0,.14,0,.22,0,1.08,0,2.1-.48,2.81-1.29,1.16-1.43,1.25-3.17,1.25-5.58-4.24-.35-7.27.98-7.27,3.66M502.28,102.84h6.55v19.01l6.83-9.42h7.45l-7.72,9.82,8.21,12.85h-7.81l-6.96-12.27v12.27h-6.55v-32.26ZM526.77,102.89h7.05v5.76h-7.05v-5.76ZM527,112.53h6.6v22.58h-6.6v-22.58ZM539.49,116.59c0-.09,0-2.54-.13-4.1h6.34l.18,3.39c1.48-2.61,4.33-4.13,7.32-3.93,4.42,0,6.29,2.68,6.87,4.24.49,1.38.62,2.54.62,6.74v12.18h-6.74v-14.01c.08-.84-.04-1.68-.35-2.46-.6-1.22-1.86-1.97-3.21-1.92-1.36-.03-2.65.63-3.44,1.74-.6,1.04-.88,2.24-.8,3.44v13.21h-6.65v-18.52ZM588.04,112.66c-.21,1.85-.31,3.71-.31,5.58v16.64c0,8.3-6.92,9.1-11.25,9.1-3.21,0-9.51-.4-9.91-7.23h6.34c.09.67.4,3.12,3.93,3.12,1.91.17,3.66-1.08,4.11-2.95.3-1.77.41-3.56.31-5.35-1.37,1.99-3.65,3.15-6.07,3.08-6.47,0-9.51-5.62-9.51-11.07,0-5.71,3.17-11.16,9.64-11.16,2.53-.18,4.95,1.06,6.29,3.21l.22-2.99h6.2ZM576.71,130.15c4.64,0,4.64-5.44,4.64-6.43,0-2.54-.49-6.87-4.51-6.87-2.5,0-4.55,1.92-4.55,6.74,0,1.11,0,6.56,4.42,6.56M594.33,129.17h5.67v5.94h-5.67v-5.94Z" fill="#8a8d8f"/></svg>