<?xml version="1.0" encoding="UTF-8"?>
<svg id="Layer_1" data-name="Layer 1" xmlns="http://www.w3.org/2000/svg" viewBox="0 0 597.405 93.08">
  <path d="M14.43,51.73c0,3.35,0,13.72,10.47,13.72,3.76,0,7.52-1.42,8.94-7.11h13.72c-.2,4.2-1.94,8.17-4.88,11.18-3.76,3.96-10.47,6-17.99,6-4.37,0-12.7-.81-18.09-6.4C1.93,64.23,0,57.32,0,49.09s2.03-18.29,10.67-24.29c4.28-2.83,9.3-4.32,14.43-4.27,7.32,0,16.06,2.85,20.73,12.4,3.46,7.01,3.25,14.53,3.05,18.8H14.43ZM33.54,42.28c0-2.34-.2-11.48-8.94-11.48-6.6,0-9.35,5.49-9.65,11.48h18.6-.01ZM69,22.26l11.58,34.85,11.79-34.85h14.53l-18.49,51.32h-16.67l-18.81-51.32h16.07ZM125.4,51.73c0,3.35,0,13.72,10.47,13.72,3.76,0,7.52-1.42,8.94-7.11h13.72c-.2,4.2-1.94,8.17-4.88,11.18-3.76,3.96-10.47,6-17.99,6-4.37,0-12.7-.81-18.09-6.4-4.68-4.88-6.6-11.79-6.6-20.02s2.03-18.29,10.67-24.29c4.28-2.83,9.3-4.32,14.43-4.27,7.32,0,16.06,2.85,20.73,12.4,3.46,7.01,3.25,14.53,3.05,18.8h-34.45v-.01ZM144.5,42.28c0-2.34-.2-11.48-8.94-11.48-6.6,0-9.35,5.49-9.65,11.48h18.6-.01ZM169.81,34.86c0-2.44-.41-9.86-.71-12.8h14.12l.3,9.86c1.93-4.37,5.28-10.57,17.48-9.96v13.52c-15.24-1.42-16.16,6.4-16.16,12.8v25.3h-15.04v-38.72h.01ZM220.4,22.26l11.28,35.56,11.48-35.56h14.94l-19.41,50.4-6.2,20.42h-15.14l6.5-19.3-19.71-51.52h16.26ZM293.21,8.58l2.33,7.39-10.57,3.28,6.9,9.87-6.35,4.51-6.9-9.33-7.1,9.33-6.35-4.51,6.95-9.87-10.57-3.28,2.33-7.39,10.37,3.37V0h8.58v11.96l10.38-3.37v-.01ZM315.23,22.26l9.45,38.72,10.88-38.72h16.56l10.77,38.72,10.06-38.72h14.94l-17.58,51.32h-16.37l-10.57-38.01-10.77,38.01h-16.56l-16.77-51.32h15.96,0ZM396.11.21h14.94v29.06c1.73-2.44,5.49-7.72,14.84-7.72,5.79-.16,11.31,2.4,14.94,6.91,1.83,2.54,3.35,7.22,3.35,13.92v31.2h-14.94v-30.69c0-2.95,0-11.18-8.43-11.18-4.27,0-9.65,2.44-9.65,10.47l.1,31.4h-15.14V.21h-.01ZM469.88,51.73c0,3.35,0,13.72,10.47,13.72,3.76,0,7.52-1.42,8.94-7.11h13.72c-.2,4.2-1.94,8.17-4.88,11.18-3.76,3.96-10.47,6-17.99,6-4.37,0-12.7-.81-18.09-6.4-4.68-4.88-6.6-11.79-6.6-20.02s2.03-18.29,10.67-24.29c4.28-2.83,9.3-4.32,14.43-4.27,7.32,0,16.06,2.85,20.73,12.4,3.46,7.01,3.25,14.53,3.05,18.8h-34.45v-.01ZM488.99,42.28c0-2.34-.2-11.48-8.94-11.48-6.6,0-9.35,5.49-9.65,11.48h18.6-.01ZM514.29,34.86c0-2.44-.41-9.86-.71-12.8h14.12l.3,9.86c1.93-4.37,5.29-10.57,17.48-9.96v13.52c-15.24-1.42-16.16,6.4-16.16,12.8v25.3h-15.04v-38.72h.01ZM562.86,51.73c0,3.35,0,13.72,10.47,13.72,3.76,0,7.52-1.42,8.94-7.11h13.72c-.2,4.2-1.94,8.17-4.88,11.18-3.76,3.96-10.47,6-17.99,6-4.37,0-12.7-.81-18.09-6.4-4.68-4.88-6.6-11.79-6.6-20.02s2.03-18.29,10.67-24.29c4.28-2.83,9.3-4.32,14.43-4.27,7.32,0,16.06,2.85,20.73,12.4,3.46,7.01,3.25,14.53,3.05,18.8h-34.45v-.01ZM581.96,42.28c0-2.34-.2-11.48-8.94-11.48-6.6,0-9.35,5.49-9.65,11.48h18.6-.01Z" fill="#8a8d8f"/>
</svg>
